# xmcd CD database file
#
# Track frame offsets:
#	150
#	19957
#	42437
#	55865
#
# Disc length: 1008 seconds
#
# Revision: 8
# Processed by: cddbd v1.5PL3 Copyright (c) Steve Scherf et al.
# Submitted via: CDex 1.51
#
DISCID=2f03ee04
DTITLE=伊藤真澄 - 「シスター・プリンセス-ピュア・ストーリーズ-」-瞳の中に
DYEAR=2001
DGENRE=
TTITLE0=瞳の中に
TTITLE1=MELODY
TTITLE2=瞳の中に(ロマンティック・ヴァージョン)
TTITLE3=瞳の中に(オフ・ヴォーカル・ヴァージョン)
EXTD=YEAR: 2001
EXTT0=
EXTT1=
EXTT2=
EXTT3=
PLAYORDER=
